<svg id="Layer_1" data-name="Layer 1" xmlns="http://www.w3.org/2000/svg" viewBox="0 0 593.52 93"><defs><style>.cls-1,.cls-12,.cls-13,.cls-14,.cls-16,.cls-5,.cls-7{isolation:isolate;}.cls-1{font-size:16.19px;}.cls-1,.cls-12,.cls-14,.cls-16{font-family:ArialMT, Arial;}.cls-2{letter-spacing:-0.02em;}.cls-3{letter-spacing:0em;}.cls-4{letter-spacing:-0.11em;}.cls-14,.cls-16,.cls-5{font-size:11.33px;}.cls-13,.cls-5,.cls-7{font-family:Courier, Courier;}.cls-6{fill:#f5f500;}.cls-12,.cls-7{font-size:12.14px;}.cls-8{fill:#ff5454;}.cls-9{fill:#26a8ff;}.cls-10{fill:#00d118;}.cls-11{fill:#b3b3b3;}.cls-13{font-size:8.09px;}.cls-14{letter-spacing:-0.07em;}.cls-15{letter-spacing:0em;}</style></defs><title>blender_hits_demo2</title><text class="cls-1" transform="translate(0 13.89)">DISCOVER-Seq O<tspan class="cls-2" x="135.85" y="0">f</tspan><tspan class="cls-3" x="140.05" y="0">f</tspan><tspan class="cls-2" x="144.55" y="0"> </tspan><tspan class="cls-4" x="148.75" y="0">T</tspan><tspan x="156.85" y="0">argets</tspan></text><text class="cls-5" transform="translate(264.69 28.46)">PAM</text><rect class="cls-6" y="30.08" width="12.95" height="12.95"/><text class="cls-7" transform="translate(2.43 40.6)">G</text><rect class="cls-8" x="12.95" y="30.08" width="12.95" height="12.95"/><text class="cls-7" transform="translate(15.38 40.6)">A</text><rect class="cls-9" x="25.9" y="30.08" width="12.95" height="12.95"/><text class="cls-7" transform="translate(28.33 40.6)">C</text><rect class="cls-9" x="38.86" y="30.08" width="12.95" height="12.95"/><text class="cls-7" transform="translate(41.28 40.6)">C</text><rect class="cls-9" x="51.81" y="30.08" width="12.95" height="12.95"/><text class="cls-7" transform="translate(54.23 40.6)">C</text><rect class="cls-9" x="64.76" y="30.08" width="12.95" height="12.95"/><text class="cls-7" transform="translate(67.19 40.6)">C</text><rect class="cls-9" x="77.71" y="30.08" width="12.95" height="12.95"/><text class="cls-7" transform="translate(80.14 40.6)">C</text><rect class="cls-10" x="90.66" y="30.08" width="12.95" height="12.95"/><text class="cls-7" transform="translate(93.09 40.6)">T</text><rect class="cls-9" x="103.61" y="30.08" width="12.95" height="12.95"/><text class="cls-7" transform="translate(106.04 40.6)">C</text><rect class="cls-9" x="116.56" y="30.08" width="12.95" height="12.95"/><text class="cls-7" transform="translate(118.99 40.6)">C</text><rect class="cls-8" x="129.52" y="30.08" width="12.95" height="12.95"/><text class="cls-7" transform="translate(131.94 40.6)">A</text><rect class="cls-9" x="142.47" y="30.08" width="12.95" height="12.95"/><text class="cls-7" transform="translate(144.89 40.6)">C</text><rect class="cls-9" x="155.42" y="30.08" width="12.95" height="12.95"/><text class="cls-7" transform="translate(157.84 40.6)">C</text><rect class="cls-9" x="168.37" y="30.08" width="12.95" height="12.95"/><text class="cls-7" transform="translate(170.8 40.6)">C</text><rect class="cls-9" x="181.32" y="30.08" width="12.95" height="12.95"/><text class="cls-7" transform="translate(183.75 40.6)">C</text><rect class="cls-6" x="194.27" y="30.08" width="12.95" height="12.95"/><text class="cls-7" transform="translate(196.7 40.6)">G</text><rect class="cls-9" x="207.22" y="30.08" width="12.95" height="12.95"/><text class="cls-7" transform="translate(209.65 40.6)">C</text><rect class="cls-9" x="220.17" y="30.08" width="12.95" height="12.95"/><text class="cls-7" transform="translate(222.6 40.6)">C</text><rect class="cls-10" x="233.13" y="30.08" width="12.95" height="12.95"/><text class="cls-7" transform="translate(235.56 40.6)">T</text><rect class="cls-9" x="246.08" y="30.08" width="12.95" height="12.95"/><text class="cls-7" transform="translate(248.51 40.6)">C</text><rect class="cls-11" x="259.03" y="30.08" width="12.95" height="12.95"/><text class="cls-7" transform="translate(261.46 40.6)">N</text><rect class="cls-6" x="271.98" y="30.08" width="12.95" height="12.95"/><text class="cls-7" transform="translate(274.41 40.6)">G</text><rect class="cls-6" x="284.93" y="30.08" width="12.95" height="12.95"/><text class="cls-7" transform="translate(287.36 40.6)">G</text><text class="cls-12" transform="translate(304.36 34.94)">DISCO</text><text class="cls-12" transform="translate(304.36 47.08)">Score</text><text class="cls-12" transform="translate(352.93 47.08)">Mismatches</text><text class="cls-12" transform="translate(436.46 47.08)">Coordinates</text><rect class="cls-10" y="51.13" width="12.95" height="12.95"/><text class="cls-7" transform="translate(2.43 61.65)">T</text><rect class="cls-10" x="12.95" y="51.13" width="12.95" height="12.95"/><text class="cls-7" transform="translate(15.38 61.65)">T</text><text class="cls-13" transform="translate(29.55 60.84)">•</text><rect class="cls-10" x="38.86" y="51.13" width="12.95" height="12.95"/><text class="cls-7" transform="translate(41.28 61.65)">T</text><text class="cls-13" transform="translate(55.45 60.84)">•</text><text class="cls-13" transform="translate(68.4 60.84)">•</text><text class="cls-13" transform="translate(81.35 60.84)">•</text><text class="cls-13" transform="translate(94.3 60.84)">•</text><text class="cls-13" transform="translate(107.25 60.84)">•</text><text class="cls-13" transform="translate(120.21 60.84)">•</text><rect class="cls-10" x="129.52" y="51.13" width="12.95" height="12.95"/><text class="cls-7" transform="translate(131.94 61.65)">T</text><text class="cls-13" transform="translate(146.11 60.84)">•</text><text class="cls-13" transform="translate(159.06 60.84)">•</text><text class="cls-13" transform="translate(172.01 60.84)">•</text><text class="cls-13" transform="translate(184.96 60.84)">•</text><text class="cls-13" transform="translate(197.91 60.84)">•</text><text class="cls-13" transform="translate(210.87 60.84)">•</text><text class="cls-13" transform="translate(223.82 60.84)">•</text><text class="cls-13" transform="translate(236.77 60.84)">•</text><text class="cls-13" transform="translate(249.72 60.84)">•</text><text class="cls-13" transform="translate(262.67 60.84)">•</text><text class="cls-13" transform="translate(275.63 60.84)">•</text><text class="cls-13" transform="translate(288.57 60.84)">•</text><text class="cls-14" transform="translate(307.6 62.46)">1<tspan class="cls-15" x="5.46" y="0">1</tspan></text><text class="cls-16" transform="translate(372.35 62.46)">4</text><text class="cls-5" transform="translate(437.11 62.46)">chr19:42302646-42302665</text><rect class="cls-8" y="64.08" width="12.95" height="12.95"/><text class="cls-7" transform="translate(2.43 74.6)">A</text><rect class="cls-6" x="12.95" y="64.08" width="12.95" height="12.95"/><text class="cls-7" transform="translate(15.38 74.6)">G</text><rect class="cls-10" x="25.9" y="64.08" width="12.95" height="12.95"/><text class="cls-7" transform="translate(28.33 74.6)">T</text><text class="cls-13" transform="translate(42.5 73.79)">•</text><text class="cls-13" transform="translate(55.45 73.79)">•</text><text class="cls-13" transform="translate(68.4 73.79)">•</text><rect class="cls-8" x="77.71" y="64.08" width="12.95" height="12.95"/><text class="cls-7" transform="translate(80.14 74.6)">A</text><text class="cls-13" transform="translate(94.3 73.79)">•</text><text class="cls-13" transform="translate(107.25 73.79)">•</text><text class="cls-13" transform="translate(120.21 73.79)">•</text><text class="cls-13" transform="translate(133.16 73.79)">•</text><text class="cls-13" transform="translate(146.11 73.79)">•</text><text class="cls-13" transform="translate(159.06 73.79)">•</text><text class="cls-13" transform="translate(172.01 73.79)">•</text><text class="cls-13" transform="translate(184.96 73.79)">•</text><text class="cls-13" transform="translate(197.91 73.79)">•</text><text class="cls-13" transform="translate(210.87 73.79)">•</text><text class="cls-13" transform="translate(223.82 73.79)">•</text><text class="cls-13" transform="translate(236.77 73.79)">•</text><rect class="cls-8" x="246.08" y="64.08" width="12.95" height="12.95"/><text class="cls-7" transform="translate(248.51 74.6)">A</text><text class="cls-13" transform="translate(262.67 73.79)">•</text><text class="cls-13" transform="translate(275.63 73.79)">•</text><text class="cls-13" transform="translate(288.57 73.79)">•</text><text class="cls-16" transform="translate(307.6 75.41)">9</text><text class="cls-16" transform="translate(372.35 75.41)">5</text><text class="cls-5" transform="translate(437.11 75.41)">chr19:18522670-18522689</text><text class="cls-13" transform="translate(3.64 86.74)">•</text><rect class="cls-9" x="12.95" y="77.03" width="12.95" height="12.95"/><text class="cls-7" transform="translate(15.38 87.55)">C</text><text class="cls-13" transform="translate(29.55 86.74)">•</text><text class="cls-13" transform="translate(42.5 86.74)">•</text><text class="cls-13" transform="translate(55.45 86.74)">•</text><text class="cls-13" transform="translate(68.4 86.74)">•</text><text class="cls-13" transform="translate(81.35 86.74)">•</text><rect class="cls-8" x="90.66" y="77.03" width="12.95" height="12.95"/><text class="cls-7" transform="translate(93.09 87.55)">A</text><text class="cls-13" transform="translate(107.25 86.74)">•</text><text class="cls-13" transform="translate(120.21 86.74)">•</text><text class="cls-13" transform="translate(133.16 86.74)">•</text><text class="cls-13" transform="translate(146.11 86.74)">•</text><text class="cls-13" transform="translate(159.06 86.74)">•</text><text class="cls-13" transform="translate(172.01 86.74)">•</text><text class="cls-13" transform="translate(184.96 86.74)">•</text><rect class="cls-8" x="194.27" y="77.03" width="12.95" height="12.95"/><text class="cls-7" transform="translate(196.7 87.55)">A</text><text class="cls-13" transform="translate(210.87 86.74)">•</text><text class="cls-13" transform="translate(223.82 86.74)">•</text><text class="cls-13" transform="translate(236.77 86.74)">•</text><text class="cls-13" transform="translate(249.72 86.74)">•</text><text class="cls-13" transform="translate(262.67 86.74)">•</text><text class="cls-13" transform="translate(275.63 86.74)">•</text><text class="cls-13" transform="translate(288.57 86.74)">•</text><text class="cls-16" transform="translate(307.6 88.36)">3</text><text class="cls-16" transform="translate(372.35 88.36)">3</text><text class="cls-5" transform="translate(437.11 88.36)">chr19:13011358-13011377</text></svg>