<?xml version="1.0" encoding="utf-8" ?>
<svg baseProfile="full" height="11in" version="1.1" width="8.5in" xmlns="http://www.w3.org/2000/svg" xmlns:ev="http://www.w3.org/2001/xml-events" xmlns:xlink="http://www.w3.org/1999/xlink"><defs /><text style="font-size:20px; font-family:Arial" x="20" y="30">DISCOVER-Seq Off Targets</text><text style="font-size:14px; font-family:Courier" x="347" y="48">PAM</text><rect fill="#F5F500" height="16" width="16" x="20" y="50" /><text fill="black" style="font-size:15px; font-family:Courier" x="23" y="63">G</text><rect fill="#FF5454" height="16" width="16" x="36" y="50" /><text fill="black" style="font-size:15px; font-family:Courier" x="39" y="63">A</text><rect fill="#26A8FF" height="16" width="16" x="52" y="50" /><text fill="black" style="font-size:15px; font-family:Courier" x="55" y="63">C</text><rect fill="#26A8FF" height="16" width="16" x="68" y="50" /><text fill="black" style="font-size:15px; font-family:Courier" x="71" y="63">C</text><rect fill="#26A8FF" height="16" width="16" x="84" y="50" /><text fill="black" style="font-size:15px; font-family:Courier" x="87" y="63">C</text><rect fill="#26A8FF" height="16" width="16" x="100" y="50" /><text fill="black" style="font-size:15px; font-family:Courier" x="103" y="63">C</text><rect fill="#26A8FF" height="16" width="16" x="116" y="50" /><text fill="black" style="font-size:15px; font-family:Courier" x="119" y="63">C</text><rect fill="#00D118" height="16" width="16" x="132" y="50" /><text fill="black" style="font-size:15px; font-family:Courier" x="135" y="63">T</text><rect fill="#26A8FF" height="16" width="16" x="148" y="50" /><text fill="black" style="font-size:15px; font-family:Courier" x="151" y="63">C</text><rect fill="#26A8FF" height="16" width="16" x="164" y="50" /><text fill="black" style="font-size:15px; font-family:Courier" x="167" y="63">C</text><rect fill="#FF5454" height="16" width="16" x="180" y="50" /><text fill="black" style="font-size:15px; font-family:Courier" x="183" y="63">A</text><rect fill="#26A8FF" height="16" width="16" x="196" y="50" /><text fill="black" style="font-size:15px; font-family:Courier" x="199" y="63">C</text><rect fill="#26A8FF" height="16" width="16" x="212" y="50" /><text fill="black" style="font-size:15px; font-family:Courier" x="215" y="63">C</text><rect fill="#26A8FF" height="16" width="16" x="228" y="50" /><text fill="black" style="font-size:15px; font-family:Courier" x="231" y="63">C</text><rect fill="#26A8FF" height="16" width="16" x="244" y="50" /><text fill="black" style="font-size:15px; font-family:Courier" x="247" y="63">C</text><rect fill="#F5F500" height="16" width="16" x="260" y="50" /><text fill="black" style="font-size:15px; font-family:Courier" x="263" y="63">G</text><rect fill="#26A8FF" height="16" width="16" x="276" y="50" /><text fill="black" style="font-size:15px; font-family:Courier" x="279" y="63">C</text><rect fill="#26A8FF" height="16" width="16" x="292" y="50" /><text fill="black" style="font-size:15px; font-family:Courier" x="295" y="63">C</text><rect fill="#00D118" height="16" width="16" x="308" y="50" /><text fill="black" style="font-size:15px; font-family:Courier" x="311" y="63">T</text><rect fill="#26A8FF" height="16" width="16" x="324" y="50" /><text fill="black" style="font-size:15px; font-family:Courier" x="327" y="63">C</text><rect fill="#B3B3B3" height="16" width="16" x="340" y="50" /><text fill="black" style="font-size:15px; font-family:Courier" x="343" y="63">N</text><rect fill="#F5F500" height="16" width="16" x="356" y="50" /><text fill="black" style="font-size:15px; font-family:Courier" x="359" y="63">G</text><rect fill="#F5F500" height="16" width="16" x="372" y="50" /><text fill="black" style="font-size:15px; font-family:Courier" x="375" y="63">G</text><text style="font-size:15px; font-family:Arial" x="396.0" y="56">DISCO</text><text style="font-size:15px; font-family:Arial" x="396.0" y="71">Score</text><text style="font-size:15px; font-family:Arial" x="456.0" y="71">Mismatches</text><text style="font-size:15px; font-family:Arial" x="559.2" y="71">Coordinates</text><rect fill="#00D118" height="16" width="16" x="20" y="76" /><text fill="black" style="font-size:15px; font-family:Courier" x="23" y="89">T</text><rect fill="#00D118" height="16" width="16" x="36" y="76" /><text fill="black" style="font-size:15px; font-family:Courier" x="39" y="89">T</text><text fill="black" style="font-size:10px; font-family:Courier" x="56.5" y="88">•</text><rect fill="#00D118" height="16" width="16" x="68" y="76" /><text fill="black" style="font-size:15px; font-family:Courier" x="71" y="89">T</text><text fill="black" style="font-size:10px; font-family:Courier" x="88.5" y="88">•</text><text fill="black" style="font-size:10px; font-family:Courier" x="104.5" y="88">•</text><text fill="black" style="font-size:10px; font-family:Courier" x="120.5" y="88">•</text><text fill="black" style="font-size:10px; font-family:Courier" x="136.5" y="88">•</text><text fill="black" style="font-size:10px; font-family:Courier" x="152.5" y="88">•</text><text fill="black" style="font-size:10px; font-family:Courier" x="168.5" y="88">•</text><rect fill="#00D118" height="16" width="16" x="180" y="76" /><text fill="black" style="font-size:15px; font-family:Courier" x="183" y="89">T</text><text fill="black" style="font-size:10px; font-family:Courier" x="200.5" y="88">•</text><text fill="black" style="font-size:10px; font-family:Courier" x="216.5" y="88">•</text><text fill="black" style="font-size:10px; font-family:Courier" x="232.5" y="88">•</text><text fill="black" style="font-size:10px; font-family:Courier" x="248.5" y="88">•</text><text fill="black" style="font-size:10px; font-family:Courier" x="264.5" y="88">•</text><text fill="black" style="font-size:10px; font-family:Courier" x="280.5" y="88">•</text><text fill="black" style="font-size:10px; font-family:Courier" x="296.5" y="88">•</text><text fill="black" style="font-size:10px; font-family:Courier" x="312.5" y="88">•</text><text fill="black" style="font-size:10px; font-family:Courier" x="328.5" y="88">•</text><text fill="black" style="font-size:10px; font-family:Courier" x="344.5" y="88">•</text><text fill="black" style="font-size:10px; font-family:Courier" x="360.5" y="88">•</text><text fill="black" style="font-size:10px; font-family:Courier" x="376.5" y="88">•</text><text fill="black" style="font-size:14px; font-family:Arial" x="400" y="90">11</text><text fill="black" style="font-size:14px; font-family:Arial" x="480" y="90">4</text><text fill="black" style="font-size:14px; font-family:courier" x="560" y="90">chr19:42302646-42302665</text><rect fill="#FF5454" height="16" width="16" x="20" y="92" /><text fill="black" style="font-size:15px; font-family:Courier" x="23" y="105">A</text><rect fill="#F5F500" height="16" width="16" x="36" y="92" /><text fill="black" style="font-size:15px; font-family:Courier" x="39" y="105">G</text><rect fill="#00D118" height="16" width="16" x="52" y="92" /><text fill="black" style="font-size:15px; font-family:Courier" x="55" y="105">T</text><text fill="black" style="font-size:10px; font-family:Courier" x="72.5" y="104">•</text><text fill="black" style="font-size:10px; font-family:Courier" x="88.5" y="104">•</text><text fill="black" style="font-size:10px; font-family:Courier" x="104.5" y="104">•</text><rect fill="#FF5454" height="16" width="16" x="116" y="92" /><text fill="black" style="font-size:15px; font-family:Courier" x="119" y="105">A</text><text fill="black" style="font-size:10px; font-family:Courier" x="136.5" y="104">•</text><text fill="black" style="font-size:10px; font-family:Courier" x="152.5" y="104">•</text><text fill="black" style="font-size:10px; font-family:Courier" x="168.5" y="104">•</text><text fill="black" style="font-size:10px; font-family:Courier" x="184.5" y="104">•</text><text fill="black" style="font-size:10px; font-family:Courier" x="200.5" y="104">•</text><text fill="black" style="font-size:10px; font-family:Courier" x="216.5" y="104">•</text><text fill="black" style="font-size:10px; font-family:Courier" x="232.5" y="104">•</text><text fill="black" style="font-size:10px; font-family:Courier" x="248.5" y="104">•</text><text fill="black" style="font-size:10px; font-family:Courier" x="264.5" y="104">•</text><text fill="black" style="font-size:10px; font-family:Courier" x="280.5" y="104">•</text><text fill="black" style="font-size:10px; font-family:Courier" x="296.5" y="104">•</text><text fill="black" style="font-size:10px; font-family:Courier" x="312.5" y="104">•</text><rect fill="#FF5454" height="16" width="16" x="324" y="92" /><text fill="black" style="font-size:15px; font-family:Courier" x="327" y="105">A</text><text fill="black" style="font-size:10px; font-family:Courier" x="344.5" y="104">•</text><text fill="black" style="font-size:10px; font-family:Courier" x="360.5" y="104">•</text><text fill="black" style="font-size:10px; font-family:Courier" x="376.5" y="104">•</text><text fill="black" style="font-size:14px; font-family:Arial" x="400" y="106">9</text><text fill="black" style="font-size:14px; font-family:Arial" x="480" y="106">5</text><text fill="black" style="font-size:14px; font-family:courier" x="560" y="106">chr19:18522670-18522689</text><text fill="black" style="font-size:10px; font-family:Courier" x="24.5" y="120">•</text><rect fill="#26A8FF" height="16" width="16" x="36" y="108" /><text fill="black" style="font-size:15px; font-family:Courier" x="39" y="121">C</text><text fill="black" style="font-size:10px; font-family:Courier" x="56.5" y="120">•</text><text fill="black" style="font-size:10px; font-family:Courier" x="72.5" y="120">•</text><text fill="black" style="font-size:10px; font-family:Courier" x="88.5" y="120">•</text><text fill="black" style="font-size:10px; font-family:Courier" x="104.5" y="120">•</text><text fill="black" style="font-size:10px; font-family:Courier" x="120.5" y="120">•</text><rect fill="#FF5454" height="16" width="16" x="132" y="108" /><text fill="black" style="font-size:15px; font-family:Courier" x="135" y="121">A</text><text fill="black" style="font-size:10px; font-family:Courier" x="152.5" y="120">•</text><text fill="black" style="font-size:10px; font-family:Courier" x="168.5" y="120">•</text><text fill="black" style="font-size:10px; font-family:Courier" x="184.5" y="120">•</text><text fill="black" style="font-size:10px; font-family:Courier" x="200.5" y="120">•</text><text fill="black" style="font-size:10px; font-family:Courier" x="216.5" y="120">•</text><text fill="black" style="font-size:10px; font-family:Courier" x="232.5" y="120">•</text><text fill="black" style="font-size:10px; font-family:Courier" x="248.5" y="120">•</text><rect fill="#FF5454" height="16" width="16" x="260" y="108" /><text fill="black" style="font-size:15px; font-family:Courier" x="263" y="121">A</text><text fill="black" style="font-size:10px; font-family:Courier" x="280.5" y="120">•</text><text fill="black" style="font-size:10px; font-family:Courier" x="296.5" y="120">•</text><text fill="black" style="font-size:10px; font-family:Courier" x="312.5" y="120">•</text><text fill="black" style="font-size:10px; font-family:Courier" x="328.5" y="120">•</text><text fill="black" style="font-size:10px; font-family:Courier" x="344.5" y="120">•</text><text fill="black" style="font-size:10px; font-family:Courier" x="360.5" y="120">•</text><text fill="black" style="font-size:10px; font-family:Courier" x="376.5" y="120">•</text><text fill="black" style="font-size:14px; font-family:Arial" x="400" y="122">3</text><text fill="black" style="font-size:14px; font-family:Arial" x="480" y="122">3</text><text fill="black" style="font-size:14px; font-family:courier" x="560" y="122">chr19:13011358-13011377</text></svg>